<svg xmlns="http://www.w3.org/2000/svg" xmlns:xlink="http://www.w3.org/1999/xlink" xml:space="preserve" version="1.1" style="shape-rendering:geometricPrecision;text-rendering:geometricPrecision;image-rendering:optimizeQuality;" viewBox="0 0 718 485" x="0px" y="0px" fill-rule="evenodd" clip-rule="evenodd"><defs><style type="text/css">
   
    .fil0 {fill:black}
   
  </style></defs><g><path class="fil0" d="M359 388c-233,0 -359,-194 -359,-194 0,0 126,-194 359,-194 233,0 359,194 359,194 0,0 -126,194 -359,194zm0 -356c-89,0 -162,73 -162,162 0,89 73,162 162,162 89,0 162,-73 162,-162 0,-89 -73,-162 -162,-162zm0 271c-60,0 -109,-49 -109,-109 0,-60 49,-109 109,-109 60,0 109,49 109,109 0,60 -49,109 -109,109z"/></g><text x="0" y="403" fill="#000000" font-size="5px" font-weight="bold" font-family="'Helvetica Neue', Helvetica, Arial-Unicode, Arial, Sans-serif">Created by aryawiraraja468</text><text x="0" y="408" fill="#000000" font-size="5px" font-weight="bold" font-family="'Helvetica Neue', Helvetica, Arial-Unicode, Arial, Sans-serif">from the Noun Project</text></svg>