<svg xmlns="http://www.w3.org/2000/svg" xmlns:xlink="http://www.w3.org/1999/xlink" viewBox="0 0 100 125" version="1.1" x="0px" y="0px"><title>i9 copy 2</title><desc>Created with Sketch.</desc><g stroke="none" stroke-width="1" fill="none" fill-rule="evenodd"><path d="M61.8330068,46.7886127 L35.9872287,65.8237718 C35.0988374,66.5587554 34.2963085,67.3830361 33.5945251,68.2782965 C26.1668405,77.7437861 39.7354161,89.9912229 48.3937975,81.6362226 C49.212354,80.8474318 49.9496273,79.9647645 50.5907345,79.0053934 L66.8885949,51.351922 C69.0889663,48.0547994 64.8885695,44.2631084 61.8330068,46.7886127 M95,60 C95,60.7613148 94.979393,61.5191951 94.9427583,62.2713512 L79.403923,62.2713512 L79.403923,57.7103315 L90.3519729,57.7103315 C89.8230595,48.2872008 86.0508306,39.7192612 80.1366169,33.1009744 L72.2326812,41.0049101 L68.9950899,37.766174 L76.8990256,29.8633831 C70.2807388,23.9491694 61.7127992,20.1769405 52.2885237,19.6480271 L52.2885237,30.2514819 L47.7091867,30.2514819 L47.7091867,19.6480271 C38.2872008,20.1769405 29.7192612,23.9491694 23.1009744,29.8633831 L30.4634035,37.2258122 L27.2258122,40.4634035 L19.8622383,33.1009744 C13.9491694,39.7192612 10.1769405,48.2872008 9.64802707,57.7103315 L20.596077,57.7103315 L20.596077,62.2713512 L5.05724171,62.2713512 C5.01946218,61.5191951 5,60.7613148 5,60 C5,35.1868624 25.1868624,15 49.9988552,15 C74.8119928,15 95,35.1868624 95,60" fill="#000000"/></g><text x="0" y="115" fill="#000000" font-size="5px" font-weight="bold" font-family="'Helvetica Neue', Helvetica, Arial-Unicode, Arial, Sans-serif">Created by Icon Island</text><text x="0" y="120" fill="#000000" font-size="5px" font-weight="bold" font-family="'Helvetica Neue', Helvetica, Arial-Unicode, Arial, Sans-serif">from the Noun Project</text></svg>