<svg xmlns="http://www.w3.org/2000/svg" xmlns:xlink="http://www.w3.org/1999/xlink" version="1.1" x="0px" y="0px" viewBox="0 0 100 125" enable-background="new 0 0 100 100" xml:space="preserve"><g><path d="M86.708,52.999H28.167c-9.375,0-17.002,7.627-17.002,17.001s7.627,17.001,17.002,17.001c1.174,0,2.125-0.952,2.125-2.126   s-0.951-2.126-2.125-2.126c-7.03,0-12.75-5.72-12.75-12.749c0-7.03,5.72-12.749,12.75-12.749h58.541   c1.174,0,2.127-0.952,2.127-2.126S87.882,52.999,86.708,52.999z"/><path d="M28.167,47.001h58.541c1.174,0,2.127-0.952,2.127-2.126s-0.953-2.126-2.127-2.126H28.167c-7.03,0-12.75-5.719-12.75-12.749   c0-7.03,5.72-12.749,12.75-12.749c1.174,0,2.125-0.952,2.125-2.126s-0.951-2.126-2.125-2.126c-9.375,0-17.002,7.626-17.002,17.001   S18.792,47.001,28.167,47.001z"/><path d="M24.296,28.751c0,5.284,5.379,9.583,11.992,9.583h38.826c1.174,0,2.127-0.952,2.127-2.126s-0.953-2.126-2.127-2.126H36.288   c-4.196,0-7.74-2.441-7.74-5.331c0-2.889,3.544-5.33,7.74-5.33c1.174,0,2.125-0.952,2.125-2.126s-0.951-2.126-2.125-2.126   C29.675,19.169,24.296,23.467,24.296,28.751z"/><path d="M75.114,61.422H36.288c-6.613,0-11.992,4.299-11.992,9.582s5.379,9.582,11.992,9.582c1.174,0,2.125-0.952,2.125-2.126   s-0.951-2.126-2.125-2.126c-4.196,0-7.74-2.439-7.74-5.33c0-2.89,3.544-5.33,7.74-5.33h38.826c1.174,0,2.127-0.951,2.127-2.126   C77.241,62.374,76.288,61.422,75.114,61.422z"/></g><text x="0" y="115" fill="#000000" font-size="5px" font-weight="bold" font-family="'Helvetica Neue', Helvetica, Arial-Unicode, Arial, Sans-serif">Created by Randomhero</text><text x="0" y="120" fill="#000000" font-size="5px" font-weight="bold" font-family="'Helvetica Neue', Helvetica, Arial-Unicode, Arial, Sans-serif">from the Noun Project</text></svg>