<svg xmlns="http://www.w3.org/2000/svg" xmlns:xlink="http://www.w3.org/1999/xlink" xml:space="preserve" version="1.1" style="shape-rendering:geometricPrecision;text-rendering:geometricPrecision;image-rendering:optimizeQuality;" viewBox="0 0 333 416.25" x="0px" y="0px" fill-rule="evenodd" clip-rule="evenodd"><defs><style type="text/css">
   
    .fil0 {fill:black;fill-rule:nonzero}
   
  </style></defs><g><path class="fil0" d="M163 188c-10,15 -34,27 -50,34 -5,3 2,9 5,11 22,18 66,26 75,-9 2,-12 -1,-25 -15,-39 -4,2 -10,3 -15,3zm4 -43c11,-23 27,-34 43,-35 44,-5 63,47 48,84 -2,7 -6,13 -11,16 -6,5 -14,5 -20,-2 -9,-10 -24,-25 -37,-30 15,17 19,34 16,49 -11,42 -66,43 -96,17 -11,-8 -20,-28 -3,-34 13,-6 36,-17 44,-29 0,0 0,0 -1,-1 -38,11 -74,-9 -68,-49 3,-21 17,-41 45,-52 12,-5 34,-3 31,15 -1,15 -3,37 4,52 2,0 3,-1 5,-1zm21 18c18,4 36,23 49,36 4,4 8,-6 9,-9 11,-28 -1,-70 -35,-67 -11,1 -23,9 -31,27 4,3 7,8 8,13zm-13 4c0,-5 -4,-8 -8,-8 -5,0 -8,3 -8,8 0,4 3,8 8,8 4,0 8,-4 8,-8zm-25 -14c-8,-17 -9,-46 -5,-62 -1,-2 -11,0 -12,1 -19,7 -35,20 -38,40 -4,31 23,43 50,36 0,-6 2,-11 5,-15zm17 -115c71,0 128,58 128,129 0,71 -57,128 -128,128 -71,0 -129,-57 -129,-128 0,-71 58,-129 129,-129zm0 13c-64,0 -116,52 -116,116 0,63 52,115 116,115 63,0 115,-52 115,-115 0,-64 -52,-116 -115,-116z"/></g><text x="0" y="348" fill="#000000" font-size="5px" font-weight="bold" font-family="'Helvetica Neue', Helvetica, Arial-Unicode, Arial, Sans-serif">Created by ArtLumika</text><text x="0" y="353" fill="#000000" font-size="5px" font-weight="bold" font-family="'Helvetica Neue', Helvetica, Arial-Unicode, Arial, Sans-serif">from the Noun Project</text></svg>