<svg xmlns="http://www.w3.org/2000/svg" viewBox="0 0 14 16.25" fill="none" x="0px" y="0px"><path d="M1.25176 12.24H12.5428C12.7633 12.2588 12.9846 12.2144 13.1808 12.1119C13.377 12.0095 13.54 11.8532 13.6506 11.6615C13.7613 11.4698 13.8151 11.2506 13.8056 11.0295C13.7962 10.8083 13.724 10.5944 13.5975 10.4128L7.95286 0.630548C7.85048 0.439776 7.69824 0.280367 7.51238 0.169321C7.32652 0.0582746 7.114 -0.000245573 6.89749 7.74568e-07C6.68098 0.000247122 6.4686 0.0592507 6.28299 0.17072C6.09738 0.282189 5.94551 0.441943 5.84356 0.632948L0.197062 10.4142C0.0778608 10.598 0.010171 10.8104 0.00105936 11.0292C-0.00805229 11.2481 0.0417483 11.4653 0.145262 11.6583C0.26026 11.8459 0.423762 11.999 0.618514 12.1014C0.813266 12.2038 1.03204 12.2517 1.25176 12.24ZM1.06326 10.9128L6.70916 1.13345C6.77656 1.01675 6.85366 0.964548 6.89916 0.964548C6.94316 0.964548 7.02126 1.01825 7.08866 1.13295L12.7332 10.9147C12.7592 10.9489 12.7775 10.9884 12.7868 11.0304C12.7961 11.0724 12.7961 11.1159 12.7869 11.1578C12.7551 11.1893 12.7167 11.2131 12.6744 11.2274C12.6321 11.2417 12.5871 11.2462 12.5428 11.2404H1.25176C1.11796 11.2404 1.03596 11.2013 1.01176 11.1583C0.989162 11.12 0.996862 11.029 1.06326 10.9128Z" fill="black"/><path d="M6.36378 7.24775C6.37378 7.43478 6.41431 7.61891 6.48378 7.79285C6.51636 7.86669 6.57064 7.92888 6.63941 7.97114C6.70818 8.0134 6.78818 8.03374 6.86878 8.02945C6.94957 8.03253 7.02944 8.01139 7.09811 7.96873C7.16679 7.92607 7.22114 7.86384 7.25418 7.79005C7.3277 7.62039 7.36923 7.4386 7.37668 7.25385L7.53338 5.45315C7.55138 5.28642 7.56019 5.11884 7.55978 4.95115C7.57139 4.71853 7.53108 4.48625 7.44178 4.27115C7.39236 4.17575 7.31539 4.09743 7.22087 4.04635C7.12635 3.99527 7.01866 3.97381 6.91178 3.98475C6.81721 3.98171 6.72307 3.99878 6.63558 4.03483C6.5481 4.07087 6.46926 4.12507 6.40428 4.19385C6.27084 4.34744 6.20206 4.54674 6.21238 4.74995C6.21238 4.89945 6.22338 5.14825 6.24548 5.49255L6.36378 7.24775Z" fill="black"/><path d="M6.89004 9.76235C7.06161 9.76359 7.22739 9.70035 7.35454 9.58515C7.42292 9.52312 7.47677 9.44676 7.51224 9.36153C7.54771 9.27629 7.56393 9.18428 7.55974 9.09205C7.56092 9.00385 7.54375 8.91638 7.50932 8.83517C7.47489 8.75397 7.42395 8.68081 7.35974 8.62035C7.23226 8.49635 7.06141 8.42702 6.88357 8.42713C6.70573 8.42724 6.53496 8.49679 6.40764 8.62095C6.34477 8.68207 6.29503 8.75538 6.26145 8.83638C6.22787 8.91738 6.21116 9.00437 6.21234 9.09205C6.20804 9.18509 6.22451 9.27792 6.26056 9.3638C6.2966 9.44968 6.35132 9.52645 6.42074 9.58855C6.55036 9.70242 6.71752 9.76433 6.89004 9.76235Z" fill="black"/><text x="0" y="28" fill="#000000" font-size="5px" font-weight="bold" font-family="'Helvetica Neue', Helvetica, Arial-Unicode, Arial, Sans-serif">Created by Oliver Silvérus</text><text x="0" y="33" fill="#000000" font-size="5px" font-weight="bold" font-family="'Helvetica Neue', Helvetica, Arial-Unicode, Arial, Sans-serif">from the Noun Project</text></svg>