<svg xmlns="http://www.w3.org/2000/svg" xmlns:xlink="http://www.w3.org/1999/xlink" version="1.1" x="0px" y="0px" viewBox="0 0 66 82.5" enable-background="new 0 0 66 66" xml:space="preserve"><g><path d="M44.6,10.2c0-2.3-1.9-4.3-4.3-4.3c-2.3,0-4.3,1.9-4.3,4.3c0,2.4,1.9,4.3,4.3,4.3C42.7,14.5,44.6,12.6,44.6,10.2z M39.3,9.2   c0.6-0.6,1.6-0.6,2.1,0c0.6,0.6,0.6,1.5,0,2.1c-0.6,0.6-1.5,0.6-2.1,0C38.7,10.7,38.7,9.8,39.3,9.2z"/><path d="M25.7,11.2h8.5c-0.1-0.3-0.1-0.7-0.1-1c0-0.3,0-0.7,0.1-1h-8.5c-6,0-11,4.9-11,10.9v18.4h-1.1c-0.5,0-0.9,0.4-1,0.8   l-3,18.2c0,0.3,0,0.6,0.2,0.8c0.2,0.2,0.5,0.3,0.8,0.3h10c0.3,0,0.6-0.1,0.8-0.3c0.2-0.2,0.3-0.5,0.2-0.8l-3-18.2   c-0.1-0.5-0.5-0.8-1-0.8h-1.1V20.2C16.7,15.3,20.7,11.2,25.7,11.2z"/><path d="M56.2,1.6c-0.1-0.4-0.6-0.7-1-0.7L34.7,2.8c-0.4,0-0.7,0.3-0.9,0.7s0,0.8,0.3,1.1L35.8,6c1.1-1.2,2.8-2,4.6-2   c2.8,0,5.2,1.9,6,4.4l9.5-5.6C56.2,2.5,56.4,2.1,56.2,1.6z"/><path d="M47.1,17.6C47.2,17.6,47.2,17.6,47.1,17.6l0-2.4c0-0.9-0.5-1.8-1.2-2.3c-1,2.1-3.2,3.6-5.7,3.6s-4.7-1.5-5.7-3.6   c-0.7,0.5-1.2,1.4-1.2,2.3v2.3c0,0,0,0,0,0.1c-3.6,0.5-6.3,3.5-6.3,7.2v39.2c0,0.6,0.5,1,1,1h24.3c0.5,0,1-0.4,1-1v-8.2H37.7   c-0.6,0-1-0.4-1-1V33c0-0.6,0.4-1,1-1h15.8v-7.1C53.5,21.2,50.7,18.1,47.1,17.6z"/><rect x="38.7" y="34" width="14.8" height="19.9"/></g><text x="0" y="81" fill="#000000" font-size="5px" font-weight="bold" font-family="'Helvetica Neue', Helvetica, Arial-Unicode, Arial, Sans-serif">Created by ProSymbols</text><text x="0" y="86" fill="#000000" font-size="5px" font-weight="bold" font-family="'Helvetica Neue', Helvetica, Arial-Unicode, Arial, Sans-serif">from the Noun Project</text></svg>