<svg xmlns="http://www.w3.org/2000/svg" xmlns:xlink="http://www.w3.org/1999/xlink" version="1.1" x="0px" y="0px" viewBox="0 0 100 125" enable-background="new 0 0 100 100" xml:space="preserve"><path fill-rule="evenodd" clip-rule="evenodd" d="M50,4.997c-24.814,0-45,20.189-45,44.999c0,24.816,20.186,45.007,45,45.007  c24.81,0,45-20.19,45-45.007C95,25.187,74.81,4.997,50,4.997z M86.871,58.195H13.134c-1.394,0-2.508-0.941-2.508-2.103V43.906  c0-1.16,1.114-2.103,2.508-2.103h73.737c1.389,0,2.503,0.942,2.503,2.103v12.187C89.374,57.254,88.26,58.195,86.871,58.195z"/><text x="0" y="115" fill="#000000" font-size="5px" font-weight="bold" font-family="'Helvetica Neue', Helvetica, Arial-Unicode, Arial, Sans-serif">Created by Yeong Rong Kim</text><text x="0" y="120" fill="#000000" font-size="5px" font-weight="bold" font-family="'Helvetica Neue', Helvetica, Arial-Unicode, Arial, Sans-serif">from the Noun Project</text></svg>