<svg xmlns="http://www.w3.org/2000/svg" xmlns:xlink="http://www.w3.org/1999/xlink" version="1.1" x="0px" y="0px" viewBox="0 0 512 640" style="enable-background:new 0 0 512 512;" xml:space="preserve"><g><path d="M256,316h50.8c8.3,0,15-6.7,15-15s-6.7-15-15-15H271v-60.2c0-8.3-6.7-15-15-15s-15,6.7-15,15v75.1   C241,309.2,247.7,316,256,316z"/><path d="M448.4,150.1l-39.3-38.9c-5.9-5.8-15.4-5.8-21.2,0.1c-5.8,5.9-5.8,15.4,0.1,21.2l39.3,38.9   c2.9,2.9,6.7,4.3,10.6,4.3c3.9,0,7.7-1.5,10.7-4.4C454.3,165.5,454.3,156,448.4,150.1z"/><path d="M256,476.3c100.3,0,181.9-80.9,181.9-180.4c0-94.8-74.1-172.7-167.9-179.8V66h16.3c8.3,0,15-6.7,15-15   s-6.7-15-15-15h-60.6c-8.3,0-15,6.7-15,15s6.7,15,15,15H240v50.2c-92.8,8.1-165.9,85.6-165.9,179.7   C74.1,395.4,155.7,476.3,256,476.3z M256,145.5c83.8,0,151.9,67.5,151.9,150.4S339.8,446.3,256,446.3   c-83.8,0-151.9-67.5-151.9-150.4S172.2,145.5,256,145.5z"/><path d="M124,132.5c5.9-5.8,5.9-15.3,0.1-21.2c-5.8-5.9-15.3-5.9-21.2-0.1l-39.3,38.9c-5.9,5.8-5.9,15.3-0.1,21.2   c2.9,3,6.8,4.4,10.7,4.4c3.8,0,7.6-1.4,10.6-4.3L124,132.5z"/></g><text x="0" y="527" fill="#000000" font-size="5px" font-weight="bold" font-family="'Helvetica Neue', Helvetica, Arial-Unicode, Arial, Sans-serif">Created by Ranjit</text><text x="0" y="532" fill="#000000" font-size="5px" font-weight="bold" font-family="'Helvetica Neue', Helvetica, Arial-Unicode, Arial, Sans-serif">from the Noun Project</text></svg>