<svg xmlns="http://www.w3.org/2000/svg" xmlns:xlink="http://www.w3.org/1999/xlink" version="1.1" x="0px" y="0px" viewBox="0 0 100 125" enable-background="new 0 0 100 100" xml:space="preserve"><g><path d="M32.437,69.144c-1.605-1.18-2.943-2.493-4.06-3.896l-10.911,10.91c0,0-0.799,0.87-1.906,1.282   c-1.113,0.415-2.542,0.37-4.221,0c-2.985-0.659-4.579,0.954-5.129,1.968c-0.578,1.055-1.008,3.212,0.43,5.034   c1.438,1.82,3.368,1.645,4.843,1.461c1.07-0.135,1.873,0.744,1.873,0.744s0.876,0.802,0.743,1.868   c-0.184,1.478-0.363,3.407,1.462,4.845c1.82,1.439,3.98,1.009,5.035,0.433c1.012-0.555,2.625-2.147,1.97-5.134   c-0.376-1.679-0.419-3.104-0.004-4.217c0.413-1.108,1.283-1.905,1.283-1.905l10.948-10.948   C34.135,70.672,33.372,69.83,32.437,69.144z"/><path d="M72.388,27.672c0.953,1.299,1.696,2.646,2.311,4.009l7.834-7.833c0,0,0.799-0.873,1.906-1.284   c1.112-0.417,2.539-0.372,4.219-0.002c2.985,0.661,4.576-0.954,5.133-1.966c0.576-1.056,1.007-3.212-0.434-5.037   c-1.438-1.82-3.365-1.646-4.844-1.46c-1.065,0.132-1.868-0.744-1.868-0.744s-0.877-0.803-0.744-1.871   c0.182-1.473,0.36-3.404-1.464-4.841c-1.82-1.438-3.977-1.01-5.03-0.434c-1.016,0.554-2.63,2.148-1.97,5.133   c0.372,1.677,0.415,3.106,0.002,4.221c-0.413,1.105-1.286,1.904-1.286,1.904l-6.785,6.785   C70.416,25.239,71.426,26.362,72.388,27.672z"/><path d="M93.79,79.405c-0.555-1.012-2.147-2.627-5.133-1.97c-1.68,0.374-3.106,0.417-4.219,0.002   c-1.107-0.413-1.904-1.282-1.904-1.282l-10.91-10.91c-1.119,1.405-2.456,2.72-4.063,3.903c-0.933,0.684-1.696,1.525-2.352,2.438   l10.947,10.948c0,0,0.869,0.795,1.28,1.904c0.415,1.112,0.372,2.541,0.002,4.22c-0.662,2.986,0.953,4.579,1.968,5.132   c1.054,0.576,3.212,1.006,5.032-0.433c1.822-1.438,1.644-3.367,1.462-4.843c-0.135-1.069,0.744-1.87,0.744-1.87   s0.803-0.879,1.868-0.745c1.479,0.185,3.409,0.362,4.846-1.461C94.797,82.618,94.366,80.458,93.79,79.405z"/><path d="M30.632,24.252l-6.787-6.785c0,0-0.872-0.801-1.283-1.906c-0.415-1.115-0.37-2.542,0-4.221   c0.659-2.985-0.954-4.577-1.966-5.131c-1.057-0.576-3.212-1.008-5.037,0.433c-1.82,1.438-1.646,3.367-1.462,4.842   c0.134,1.068-0.744,1.869-0.744,1.869s-0.801,0.878-1.869,0.745c-1.474-0.183-3.404-0.361-4.843,1.463   c-1.438,1.82-1.008,3.976-0.43,5.033c0.55,1.014,2.146,2.627,5.129,1.968c1.679-0.373,3.106-0.415,4.223-0.002   c1.105,0.415,1.904,1.283,1.904,1.283l7.836,7.836c0.613-1.363,1.355-2.708,2.309-4.007C28.573,26.362,29.583,25.239,30.632,24.252   z"/><path d="M70.788,28.847c-5.418-7.38-12.285-8.704-20.787-8.711c-8.505,0.007-15.37,1.332-20.79,8.711   c-3.656,4.979-4.389,10.77-4.358,16.508c0.042,8.461,1.415,16.792,8.759,22.19v0.002c2.636,1.935,4.533,4.877,5.067,8.365v1.498   c0,1.357,1.1,2.457,2.455,2.457c1.357,0,2.456-1.1,2.456-2.457v-1.498c0-0.276,0.223-0.499,0.499-0.499   c0.275,0,0.498,0.223,0.498,0.499v1.498c0,1.357,1.099,2.457,2.457,2.457c1.357,0,2.454-1.1,2.454-2.457v-1.498h0.004   c0-0.276,0.225-0.499,0.5-0.499c0.275,0,0.497,0.223,0.497,0.499c0,0.007-0.004,0.016-0.004,0.022v1.476   c0,1.357,1.101,2.457,2.455,2.457c1.355,0,2.457-1.1,2.457-2.457v-1.498c0-0.276,0.221-0.499,0.496-0.499s0.5,0.223,0.5,0.499   c0,0.002,0,0.003,0,0.005v1.493c0,1.357,1.097,2.457,2.454,2.457s2.455-1.1,2.455-2.457v-1.498h0.008   c0.535-3.488,2.431-6.431,5.067-8.365v-0.002c7.343-5.397,8.717-13.729,8.763-22.188C75.176,39.622,74.446,33.828,70.788,28.847z    M39.408,60.629c-4.563,0-7.287-2.921-7.287-7.819c0-2.362,1.917-4.277,4.278-4.277h6.014c2.366,0,4.278,1.915,4.278,4.277   C46.691,57.708,43.968,60.629,39.408,60.629z M52.137,67.681c-0.14,0.075-0.296,0.114-0.451,0.114   c-0.185,0-0.368-0.054-0.524-0.159c-0.357-0.236-0.746-0.414-1.16-0.535c-0.415,0.121-0.802,0.299-1.157,0.535   c-0.159,0.105-0.343,0.159-0.525,0.159c-0.157,0-0.312-0.039-0.454-0.114c-0.31-0.169-0.502-0.491-0.5-0.844   c0.005-1.375,0.583-3.763,2.14-4.713c0.153-0.091,0.325-0.138,0.496-0.138s0.345,0.047,0.497,0.138   c1.557,0.95,2.131,3.338,2.139,4.713C52.639,67.189,52.446,67.512,52.137,67.681z M60.595,60.629c-4.562,0-7.287-2.921-7.287-7.819   c0-2.362,1.917-4.277,4.281-4.277h6.013c2.361,0,4.277,1.915,4.277,4.277C67.879,57.708,65.156,60.629,60.595,60.629z"/></g><text x="0" y="115" fill="#000000" font-size="5px" font-weight="bold" font-family="'Helvetica Neue', Helvetica, Arial-Unicode, Arial, Sans-serif">Created by Diego Naive</text><text x="0" y="120" fill="#000000" font-size="5px" font-weight="bold" font-family="'Helvetica Neue', Helvetica, Arial-Unicode, Arial, Sans-serif">from the Noun Project</text></svg>